<svg xmlns="http://www.w3.org/2000/svg" viewBox="0 0 800 420" role="img" aria-label="Bus route illustration">
  <defs>
    <linearGradient id="bg" x1="0" x2="1">
      <stop offset="0%" stop-color="#f4f7fb"/>
      <stop offset="100%" stop-color="#dfeafb"/>
    </linearGradient>
  </defs>
  <rect width="800" height="420" fill="url(#bg)"/>
  <path d="M110 300 C 180 260, 250 210, 310 175 S 470 120, 550 150 S 670 220, 720 145" fill="none" stroke="#1f6feb" stroke-width="8" stroke-linecap="round" stroke-dasharray="14 12"/>
  <g fill="#1f6feb">
    <circle cx="110" cy="300" r="10"/>
    <circle cx="310" cy="175" r="10"/>
    <circle cx="550" cy="150" r="10"/>
    <circle cx="720" cy="145" r="10"/>
  </g>
  <g transform="translate(220 120)">
    <rect x="0" y="60" width="290" height="110" rx="24" fill="#0f172a"/>
    <rect x="36" y="26" width="210" height="94" rx="18" fill="#dbeafe"/>
    <rect x="30" y="90" width="246" height="52" rx="12" fill="#f59e0b"/>
    <circle cx="62" cy="185" r="24" fill="#1f2937"/>
    <circle cx="230" cy="185" r="24" fill="#1f2937"/>
    <circle cx="62" cy="185" r="10" fill="#dbeafe"/>
    <circle cx="230" cy="185" r="10" fill="#dbeafe"/>
    <rect x="80" y="62" width="130" height="18" rx="8" fill="#64748b"/>
    <rect x="80" y="88" width="165" height="14" rx="7" fill="#64748b"/>
  </g>
  <text x="120" y="90" font-size="22" font-family="Arial, sans-serif" fill="#0f172a" font-weight="700">Lviv → Berlin</text>
</svg>
